solid pyramide.stl
 facet normal 0.0 0.0 -1.0
  outer loop
   vertex 20.0 20.0 0.0
   vertex 0.0 0.0 0.0
   vertex 0.0 20.0 0.0
  endloop
 endfacet
 facet normal 0.0 0.0 -1.0
  outer loop
   vertex 0.0 0.0 0.0
   vertex 20.0 20.0 0.0
   vertex 20.0 0.0 0.0
  endloop
 endfacet
 facet normal -0.8944 0.0 0.4472
  outer loop
   vertex 0.0 20.0 0.0
   vertex 0.0 0.0 0.0
   vertex 10.0 10.0 20.0
  endloop
 endfacet
 facet normal 0.0 0.8944 0.4472
  outer loop
   vertex 10.0 10.0 20.0
   vertex 20.0 20.0 0.0
   vertex 0.0 20.0 0.0
  endloop
 endfacet
 facet normal 0.8944 0.0 0.4472
  outer loop
   vertex 20.0 20.0 0.0
   vertex 10.0 10.0 20.0
   vertex 20.0 0.0 0.0
  endloop
 endfacet
 facet normal 0.0 -0.8944 0.4472
  outer loop
   vertex 10.0 10.0 20.0
   vertex 0.0 0.0 0.0
   vertex 20.0 0.0 0.0
  endloop
 endfacet
endsolid pyramide.stl
