solid PontCubeTrou
facet normal 1.0 0.0 0.0
outer loop
vertex 70.0 20.0 0.0
vertex 70.0 0.0 10.0
vertex 70.0 0.0 0.0
endloop
endfacet
facet normal 1.0 0.0 0.0
outer loop
vertex 70.0 0.0 10.0
vertex 70.0 20.0 0.0
vertex 70.0 20.0 10.0
endloop
endfacet
facet normal 0.0 0.0 1.0
outer loop
vertex 49.99999999999999 0.0 10.0
vertex 55.6698729810778 7.499999999999997 10.0
vertex 49.99999999999999 20.0 10.0
endloop
endfacet
facet normal 0.0 0.0 1.0
outer loop
vertex 55.6698729810778 7.499999999999997 10.0
vertex 49.99999999999999 0.0 10.0
vertex 56.464466094067255 6.4644660940672605 10.0
endloop
endfacet
facet normal 0.0 0.0 1.0
outer loop
vertex 56.464466094067255 6.4644660940672605 10.0
vertex 49.99999999999999 0.0 10.0
vertex 57.499999999999986 5.6698729810778055 10.0
endloop
endfacet
facet normal 0.0 0.0 1.0
outer loop
vertex 57.499999999999986 5.6698729810778055 10.0
vertex 49.99999999999999 0.0 10.0
vertex 70.0 0.0 10.0
endloop
endfacet
facet normal 0.0 0.0 1.0
outer loop
vertex 49.99999999999999 20.0 10.0
vertex 55.6698729810778 7.499999999999997 10.0
vertex 55.170370868554656 8.705904774487392 10.0
endloop
endfacet
facet normal 0.0 0.0 1.0
outer loop
vertex 49.99999999999999 20.0 10.0
vertex 55.170370868554656 8.705904774487392 10.0
vertex 54.99999999999999 9.999999999999998 10.0
endloop
endfacet
facet normal 0.0 0.0 1.0
outer loop
vertex 57.499999999999986 5.6698729810778055 10.0
vertex 70.0 0.0 10.0
vertex 58.70590477448739 5.170370868554658 10.0
endloop
endfacet
facet normal 0.0 0.0 1.0
outer loop
vertex 58.70590477448739 5.170370868554658 10.0
vertex 70.0 0.0 10.0
vertex 59.99999999999999 4.999999999999999 10.0
endloop
endfacet
facet normal 0.0 0.0 1.0
outer loop
vertex 59.99999999999999 4.999999999999999 10.0
vertex 70.0 0.0 10.0
vertex 61.29409522551259 5.170370868554658 10.0
endloop
endfacet
facet normal 0.0 0.0 1.0
outer loop
vertex 61.29409522551259 5.170370868554658 10.0
vertex 70.0 0.0 10.0
vertex 62.5 5.669872981077807 10.0
endloop
endfacet
facet normal 0.0 0.0 1.0
outer loop
vertex 62.5 5.669872981077807 10.0
vertex 70.0 0.0 10.0
vertex 63.53553390593272 6.464466094067262 10.0
endloop
endfacet
facet normal 0.0 0.0 1.0
outer loop
vertex 63.53553390593272 6.464466094067262 10.0
vertex 70.0 0.0 10.0
vertex 64.3301270189222 7.5 10.0
endloop
endfacet
facet normal 0.0 0.0 1.0
outer loop
vertex 64.3301270189222 7.5 10.0
vertex 70.0 0.0 10.0
vertex 64.82962913144533 8.705904774487395 10.0
endloop
endfacet
facet normal 0.0 0.0 1.0
outer loop
vertex 64.82962913144533 8.705904774487395 10.0
vertex 70.0 0.0 10.0
vertex 65.0 10.0 10.0
endloop
endfacet
facet normal 0.0 0.0 1.0
outer loop
vertex 49.99999999999999 20.0 10.0
vertex 57.499999999999986 14.330127018922191 10.0
vertex 70.0 20.0 10.0
endloop
endfacet
facet normal 0.0 0.0 1.0
outer loop
vertex 57.499999999999986 14.330127018922191 10.0
vertex 49.99999999999999 20.0 10.0
vertex 56.464466094067255 13.535533905932736 10.0
endloop
endfacet
facet normal 0.0 0.0 1.0
outer loop
vertex 56.464466094067255 13.535533905932736 10.0
vertex 49.99999999999999 20.0 10.0
vertex 55.66987298107779 12.499999999999996 10.0
endloop
endfacet
facet normal 0.0 0.0 1.0
outer loop
vertex 55.66987298107779 12.499999999999996 10.0
vertex 49.99999999999999 20.0 10.0
vertex 55.170370868554656 11.294095225512601 10.0
endloop
endfacet
facet normal 0.0 0.0 1.0
outer loop
vertex 55.170370868554656 11.294095225512601 10.0
vertex 49.99999999999999 20.0 10.0
vertex 54.99999999999999 9.999999999999998 10.0
endloop
endfacet
facet normal 0.0 0.0 1.0
outer loop
vertex 70.0 20.0 10.0
vertex 57.499999999999986 14.330127018922191 10.0
vertex 58.70590477448738 14.829629131445342 10.0
endloop
endfacet
facet normal 0.0 0.0 1.0
outer loop
vertex 70.0 20.0 10.0
vertex 58.70590477448738 14.829629131445342 10.0
vertex 59.99999999999999 15.0 10.0
endloop
endfacet
facet normal 0.0 0.0 1.0
outer loop
vertex 70.0 20.0 10.0
vertex 59.99999999999999 15.0 10.0
vertex 61.29409522551259 14.829629131445342 10.0
endloop
endfacet
facet normal 0.0 0.0 1.0
outer loop
vertex 70.0 20.0 10.0
vertex 61.29409522551259 14.829629131445342 10.0
vertex 62.5 14.330127018922195 10.0
endloop
endfacet
facet normal 0.0 0.0 1.0
outer loop
vertex 70.0 20.0 10.0
vertex 62.5 14.330127018922195 10.0
vertex 63.53553390593272 13.53553390593274 10.0
endloop
endfacet
facet normal 0.0 0.0 1.0
outer loop
vertex 70.0 20.0 10.0
vertex 63.53553390593272 13.53553390593274 10.0
vertex 64.3301270189222 12.500000000000002 10.0
endloop
endfacet
facet normal 0.0 0.0 1.0
outer loop
vertex 70.0 20.0 10.0
vertex 64.3301270189222 12.500000000000002 10.0
vertex 64.82962913144533 11.294095225512605 10.0
endloop
endfacet
facet normal 0.0 0.0 1.0
outer loop
vertex 70.0 20.0 10.0
vertex 64.82962913144533 11.294095225512605 10.0
vertex 65.0 10.0 10.0
endloop
endfacet
facet normal 0.0 0.0 1.0
outer loop
vertex 70.0 20.0 10.0
vertex 65.0 10.0 10.0
vertex 70.0 0.0 10.0
endloop
endfacet
facet normal -0.0 -0.0 -1.0
outer loop
vertex 49.99999999999999 20.0 0.0
vertex 55.66987298107779 12.499999999999996 2.8199664825478975e-15
vertex 49.99999999999999 0.0 0.0
endloop
endfacet
facet normal -0.0 -0.0 -1.0
outer loop
vertex 55.66987298107779 12.499999999999996 2.8199664825478975e-15
vertex 49.99999999999999 20.0 0.0
vertex 56.464466094067255 13.535533905932736 2.8199664825478975e-15
endloop
endfacet
facet normal -0.0 -0.0 -1.0
outer loop
vertex 56.464466094067255 13.535533905932736 2.8199664825478975e-15
vertex 49.99999999999999 20.0 0.0
vertex 57.499999999999986 14.330127018922191 2.8199664825478975e-15
endloop
endfacet
facet normal -0.0 -0.0 -1.0
outer loop
vertex 57.499999999999986 14.330127018922191 2.8199664825478975e-15
vertex 49.99999999999999 20.0 0.0
vertex 70.0 20.0 0.0
endloop
endfacet
facet normal -0.0 -0.0 -1.0
outer loop
vertex 49.99999999999999 0.0 0.0
vertex 55.66987298107779 12.499999999999996 2.8199664825478975e-15
vertex 55.170370868554656 11.294095225512601 2.8199664825478975e-15
endloop
endfacet
facet normal -0.0 -0.0 -1.0
outer loop
vertex 49.99999999999999 0.0 0.0
vertex 55.170370868554656 11.294095225512601 2.8199664825478975e-15
vertex 54.99999999999999 9.999999999999998 2.8199664825478975e-15
endloop
endfacet
facet normal -0.0 -0.0 -1.0
outer loop
vertex 57.499999999999986 14.330127018922191 2.8199664825478975e-15
vertex 70.0 20.0 0.0
vertex 58.70590477448738 14.829629131445342 2.8199664825478975e-15
endloop
endfacet
facet normal -0.0 -0.0 -1.0
outer loop
vertex 58.70590477448738 14.829629131445342 2.8199664825478975e-15
vertex 70.0 20.0 0.0
vertex 59.99999999999999 15.0 2.8199664825478975e-15
endloop
endfacet
facet normal -0.0 -0.0 -1.0
outer loop
vertex 59.99999999999999 15.0 2.8199664825478975e-15
vertex 70.0 20.0 0.0
vertex 61.29409522551259 14.829629131445342 2.8199664825478975e-15
endloop
endfacet
facet normal -0.0 -0.0 -1.0
outer loop
vertex 61.29409522551259 14.829629131445342 2.8199664825478975e-15
vertex 70.0 20.0 0.0
vertex 62.5 14.330127018922195 2.8199664825478975e-15
endloop
endfacet
facet normal -0.0 -0.0 -1.0
outer loop
vertex 62.5 14.330127018922195 2.8199664825478975e-15
vertex 70.0 20.0 0.0
vertex 63.53553390593272 13.53553390593274 2.8199664825478975e-15
endloop
endfacet
facet normal -0.0 -0.0 -1.0
outer loop
vertex 63.53553390593272 13.53553390593274 2.8199664825478975e-15
vertex 70.0 20.0 0.0
vertex 64.3301270189222 12.500000000000002 2.8199664825478975e-15
endloop
endfacet
facet normal -0.0 -0.0 -1.0
outer loop
vertex 64.3301270189222 12.500000000000002 2.8199664825478975e-15
vertex 70.0 20.0 0.0
vertex 64.82962913144533 11.294095225512605 2.8199664825478975e-15
endloop
endfacet
facet normal -0.0 -0.0 -1.0
outer loop
vertex 64.82962913144533 11.294095225512605 2.8199664825478975e-15
vertex 70.0 20.0 0.0
vertex 65.0 10.0 2.8199664825478975e-15
endloop
endfacet
facet normal -0.0 -0.0 -1.0
outer loop
vertex 49.99999999999999 0.0 0.0
vertex 57.499999999999986 5.6698729810778055 2.8199664825478975e-15
vertex 70.0 0.0 0.0
endloop
endfacet
facet normal -0.0 -0.0 -1.0
outer loop
vertex 57.499999999999986 5.6698729810778055 2.8199664825478975e-15
vertex 49.99999999999999 0.0 0.0
vertex 56.464466094067255 6.4644660940672605 2.8199664825478975e-15
endloop
endfacet
facet normal -0.0 -0.0 -1.0
outer loop
vertex 56.464466094067255 6.4644660940672605 2.8199664825478975e-15
vertex 49.99999999999999 0.0 0.0
vertex 55.6698729810778 7.499999999999997 2.8199664825478975e-15
endloop
endfacet
facet normal -0.0 -0.0 -1.0
outer loop
vertex 55.6698729810778 7.499999999999997 2.8199664825478975e-15
vertex 49.99999999999999 0.0 0.0
vertex 55.170370868554656 8.705904774487392 2.8199664825478975e-15
endloop
endfacet
facet normal -0.0 -0.0 -1.0
outer loop
vertex 55.170370868554656 8.705904774487392 2.8199664825478975e-15
vertex 49.99999999999999 0.0 0.0
vertex 54.99999999999999 9.999999999999998 2.8199664825478975e-15
endloop
endfacet
facet normal -0.0 -0.0 -1.0
outer loop
vertex 70.0 0.0 0.0
vertex 57.499999999999986 5.6698729810778055 2.8199664825478975e-15
vertex 58.70590477448739 5.170370868554658 2.8199664825478975e-15
endloop
endfacet
facet normal -0.0 -0.0 -1.0
outer loop
vertex 70.0 0.0 0.0
vertex 58.70590477448739 5.170370868554658 2.8199664825478975e-15
vertex 59.99999999999999 4.999999999999999 2.8199664825478975e-15
endloop
endfacet
facet normal -0.0 -0.0 -1.0
outer loop
vertex 70.0 0.0 0.0
vertex 59.99999999999999 4.999999999999999 2.8199664825478975e-15
vertex 61.29409522551259 5.170370868554658 2.8199664825478975e-15
endloop
endfacet
facet normal -0.0 -0.0 -1.0
outer loop
vertex 70.0 0.0 0.0
vertex 61.29409522551259 5.170370868554658 2.8199664825478975e-15
vertex 62.5 5.669872981077807 2.8199664825478975e-15
endloop
endfacet
facet normal -0.0 -0.0 -1.0
outer loop
vertex 70.0 0.0 0.0
vertex 62.5 5.669872981077807 2.8199664825478975e-15
vertex 63.53553390593272 6.464466094067262 2.8199664825478975e-15
endloop
endfacet
facet normal -0.0 -0.0 -1.0
outer loop
vertex 70.0 0.0 0.0
vertex 63.53553390593272 6.464466094067262 2.8199664825478975e-15
vertex 64.3301270189222 7.5 2.8199664825478975e-15
endloop
endfacet
facet normal -0.0 -0.0 -1.0
outer loop
vertex 70.0 0.0 0.0
vertex 64.3301270189222 7.5 2.8199664825478975e-15
vertex 64.82962913144533 8.705904774487395 2.8199664825478975e-15
endloop
endfacet
facet normal -0.0 -0.0 -1.0
outer loop
vertex 70.0 0.0 0.0
vertex 64.82962913144533 8.705904774487395 2.8199664825478975e-15
vertex 65.0 10.0 2.8199664825478975e-15
endloop
endfacet
facet normal -0.0 -0.0 -1.0
outer loop
vertex 70.0 0.0 0.0
vertex 65.0 10.0 2.8199664825478975e-15
vertex 70.0 20.0 0.0
endloop
endfacet
facet normal 0.0 1.0 0.0
outer loop
vertex 49.99999999999999 20.0 10.0
vertex 70.0 20.0 0.0
vertex 49.99999999999999 20.0 0.0
endloop
endfacet
facet normal 0.0 1.0 0.0
outer loop
vertex 70.0 20.0 0.0
vertex 49.99999999999999 20.0 10.0
vertex 70.0 20.0 10.0
endloop
endfacet
facet normal -0.7071067811865472 -0.707106781186548 0.0
outer loop
vertex 63.53553390593272 13.53553390593274 10.0
vertex 62.5 14.330127018922195 2.8199664825478975e-15
vertex 63.53553390593272 13.53553390593274 2.8199664825478975e-15
endloop
endfacet
facet normal -0.5 -0.8660254037844387 0.0
outer loop
vertex 62.5 14.330127018922195 2.8199664825478975e-15
vertex 63.53553390593272 13.53553390593274 10.0
vertex 62.5 14.330127018922195 10.0
endloop
endfacet
facet normal -1.0 -0.0 -0.0
outer loop
vertex 49.99999999999999 20.0 10.0
vertex 49.99999999999999 0.0 0.0
vertex 49.99999999999999 0.0 10.0
endloop
endfacet
facet normal -1.0 -0.0 -0.0
outer loop
vertex 49.99999999999999 0.0 0.0
vertex 49.99999999999999 20.0 10.0
vertex 49.99999999999999 20.0 0.0
endloop
endfacet
facet normal 0.5000000000000003 0.8660254037844387 0.0
outer loop
vertex 57.499999999999986 5.6698729810778055 10.0
vertex 58.70590477448739 5.170370868554658 2.8199664825478975e-15
vertex 57.499999999999986 5.6698729810778055 2.8199664825478975e-15
endloop
endfacet
facet normal 0.2588190451025203 0.9659258262890684 0.0
outer loop
vertex 58.70590477448739 5.170370868554658 2.8199664825478975e-15
vertex 57.499999999999986 5.6698729810778055 10.0
vertex 58.70590477448739 5.170370868554658 10.0
endloop
endfacet
facet normal 0.2588190451025203 0.9659258262890684 0.0
outer loop
vertex 58.70590477448739 5.170370868554658 10.0
vertex 59.99999999999999 4.999999999999999 2.8199664825478975e-15
vertex 58.70590477448739 5.170370868554658 2.8199664825478975e-15
endloop
endfacet
facet normal -2.673332968694071e-16 1.0 0.0
outer loop
vertex 59.99999999999999 4.999999999999999 2.8199664825478975e-15
vertex 58.70590477448739 5.170370868554658 10.0
vertex 59.99999999999999 4.999999999999999 10.0
endloop
endfacet
facet normal -2.673332968694071e-16 1.0 0.0
outer loop
vertex 59.99999999999999 4.999999999999999 10.0
vertex 61.29409522551259 5.170370868554658 2.8199664825478975e-15
vertex 59.99999999999999 4.999999999999999 2.8199664825478975e-15
endloop
endfacet
facet normal -0.2588190451025208 0.9659258262890684 0.0
outer loop
vertex 61.29409522551259 5.170370868554658 2.8199664825478975e-15
vertex 59.99999999999999 4.999999999999999 10.0
vertex 61.29409522551259 5.170370868554658 10.0
endloop
endfacet
facet normal -0.2588190451025208 0.9659258262890684 0.0
outer loop
vertex 61.29409522551259 5.170370868554658 10.0
vertex 62.5 5.669872981077807 2.8199664825478975e-15
vertex 61.29409522551259 5.170370868554658 2.8199664825478975e-15
endloop
endfacet
facet normal -0.49999999999999933 0.8660254037844392 0.0
outer loop
vertex 62.5 5.669872981077807 2.8199664825478975e-15
vertex 61.29409522551259 5.170370868554658 10.0
vertex 62.5 5.669872981077807 10.0
endloop
endfacet
facet normal -0.9659258262890683 -0.2588190451025206 0.0
outer loop
vertex 64.82962913144533 11.294095225512605 10.0
vertex 65.0 10.0 2.8199664825478975e-15
vertex 65.0 10.0 10.0
endloop
endfacet
facet normal -1.0 8.019998906082215e-17 0.0
outer loop
vertex 65.0 10.0 2.8199664825478975e-15
vertex 64.82962913144533 11.294095225512605 10.0
vertex 64.82962913144533 11.294095225512605 2.8199664825478975e-15
endloop
endfacet
facet normal -0.8660254037844382 -0.500000000000001 0.0
outer loop
vertex 64.3301270189222 12.500000000000002 10.0
vertex 64.82962913144533 11.294095225512605 2.8199664825478975e-15
vertex 64.82962913144533 11.294095225512605 10.0
endloop
endfacet
facet normal -0.9659258262890683 -0.2588190451025206 0.0
outer loop
vertex 64.82962913144533 11.294095225512605 2.8199664825478975e-15
vertex 64.3301270189222 12.500000000000002 10.0
vertex 64.3301270189222 12.500000000000002 2.8199664825478975e-15
endloop
endfacet
facet normal -0.49999999999999933 0.8660254037844392 0.0
outer loop
vertex 62.5 5.669872981077807 10.0
vertex 63.53553390593272 6.464466094067262 2.8199664825478975e-15
vertex 62.5 5.669872981077807 2.8199664825478975e-15
endloop
endfacet
facet normal -0.7071067811865472 0.7071067811865478 0.0
outer loop
vertex 63.53553390593272 6.464466094067262 2.8199664825478975e-15
vertex 62.5 5.669872981077807 10.0
vertex 63.53553390593272 6.464466094067262 10.0
endloop
endfacet
facet normal -0.9659258262890683 0.2588190451025207 0.0
outer loop
vertex 64.82962913144533 8.705904774487395 10.0
vertex 64.3301270189222 7.5 2.8199664825478975e-15
vertex 64.3301270189222 7.5 10.0
endloop
endfacet
facet normal -0.8660254037844389 0.4999999999999996 0.0
outer loop
vertex 64.3301270189222 7.5 2.8199664825478975e-15
vertex 64.82962913144533 8.705904774487395 10.0
vertex 64.82962913144533 8.705904774487395 2.8199664825478975e-15
endloop
endfacet
facet normal -1.0 8.019998906082215e-17 0.0
outer loop
vertex 65.0 10.0 10.0
vertex 64.82962913144533 8.705904774487395 2.8199664825478975e-15
vertex 64.82962913144533 8.705904774487395 10.0
endloop
endfacet
facet normal -0.9659258262890683 0.2588190451025207 0.0
outer loop
vertex 64.82962913144533 8.705904774487395 2.8199664825478975e-15
vertex 65.0 10.0 10.0
vertex 65.0 10.0 2.8199664825478975e-15
endloop
endfacet
facet normal 0.8660254037844393 -0.49999999999999933 0.0
outer loop
vertex 55.66987298107779 12.499999999999996 2.8199664825478975e-15
vertex 55.170370868554656 11.294095225512601 10.0
vertex 55.170370868554656 11.294095225512601 2.8199664825478975e-15
endloop
endfacet
facet normal 0.9659258262890683 -0.25881904510252074 0.0
outer loop
vertex 55.170370868554656 11.294095225512601 10.0
vertex 55.66987298107779 12.499999999999996 2.8199664825478975e-15
vertex 55.66987298107779 12.499999999999996 10.0
endloop
endfacet
facet normal -0.8660254037844389 0.4999999999999996 0.0
outer loop
vertex 64.3301270189222 7.5 10.0
vertex 63.53553390593272 6.464466094067262 2.8199664825478975e-15
vertex 63.53553390593272 6.464466094067262 10.0
endloop
endfacet
facet normal -0.7071067811865472 0.7071067811865478 0.0
outer loop
vertex 63.53553390593272 6.464466094067262 2.8199664825478975e-15
vertex 64.3301270189222 7.5 10.0
vertex 64.3301270189222 7.5 2.8199664825478975e-15
endloop
endfacet
facet normal 1.0 -2.1386663749552568e-16 0.0
outer loop
vertex 54.99999999999999 9.999999999999998 2.8199664825478975e-15
vertex 55.170370868554656 8.705904774487392 10.0
vertex 55.170370868554656 8.705904774487392 2.8199664825478975e-15
endloop
endfacet
facet normal 0.9659258262890679 0.2588190451025227 0.0
outer loop
vertex 55.170370868554656 8.705904774487392 10.0
vertex 54.99999999999999 9.999999999999998 2.8199664825478975e-15
vertex 54.99999999999999 9.999999999999998 10.0
endloop
endfacet
facet normal 0.9659258262890679 0.2588190451025227 0.0
outer loop
vertex 55.170370868554656 8.705904774487392 2.8199664825478975e-15
vertex 55.6698729810778 7.499999999999997 10.0
vertex 55.6698729810778 7.499999999999997 2.8199664825478975e-15
endloop
endfacet
facet normal 0.8660254037844378 0.5000000000000018 0.0
outer loop
vertex 55.6698729810778 7.499999999999997 10.0
vertex 55.170370868554656 8.705904774487392 2.8199664825478975e-15
vertex 55.170370868554656 8.705904774487392 10.0
endloop
endfacet
facet normal 0.8660254037844378 0.5000000000000018 0.0
outer loop
vertex 55.6698729810778 7.499999999999997 2.8199664825478975e-15
vertex 56.464466094067255 6.4644660940672605 10.0
vertex 56.464466094067255 6.4644660940672605 2.8199664825478975e-15
endloop
endfacet
facet normal 0.7071067811865481 0.707106781186547 0.0
outer loop
vertex 56.464466094067255 6.4644660940672605 10.0
vertex 55.6698729810778 7.499999999999997 2.8199664825478975e-15
vertex 55.6698729810778 7.499999999999997 10.0
endloop
endfacet
facet normal 0.7071067811865481 0.707106781186547 0.0
outer loop
vertex 56.464466094067255 6.4644660940672605 10.0
vertex 57.499999999999986 5.6698729810778055 2.8199664825478975e-15
vertex 56.464466094067255 6.4644660940672605 2.8199664825478975e-15
endloop
endfacet
facet normal 0.5000000000000003 0.8660254037844387 0.0
outer loop
vertex 57.499999999999986 5.6698729810778055 2.8199664825478975e-15
vertex 56.464466094067255 6.4644660940672605 10.0
vertex 57.499999999999986 5.6698729810778055 10.0
endloop
endfacet
facet normal -2.851555166607009e-16 -1.0 0.0
outer loop
vertex 59.99999999999999 15.0 10.0
vertex 58.70590477448738 14.829629131445342 2.8199664825478975e-15
vertex 59.99999999999999 15.0 2.8199664825478975e-15
endloop
endfacet
facet normal 0.2588190451025219 -0.9659258262890681 0.0
outer loop
vertex 58.70590477448738 14.829629131445342 2.8199664825478975e-15
vertex 59.99999999999999 15.0 10.0
vertex 58.70590477448738 14.829629131445342 10.0
endloop
endfacet
facet normal 0.2588190451025219 -0.9659258262890681 0.0
outer loop
vertex 58.70590477448738 14.829629131445342 10.0
vertex 57.499999999999986 14.330127018922191 2.8199664825478975e-15
vertex 58.70590477448738 14.829629131445342 2.8199664825478975e-15
endloop
endfacet
facet normal 0.5000000000000004 -0.8660254037844386 0.0
outer loop
vertex 57.499999999999986 14.330127018922191 2.8199664825478975e-15
vertex 58.70590477448738 14.829629131445342 10.0
vertex 57.499999999999986 14.330127018922191 10.0
endloop
endfacet
facet normal 0.5000000000000004 -0.8660254037844386 0.0
outer loop
vertex 57.499999999999986 14.330127018922191 10.0
vertex 56.464466094067255 13.535533905932736 2.8199664825478975e-15
vertex 57.499999999999986 14.330127018922191 2.8199664825478975e-15
endloop
endfacet
facet normal 0.7071067811865476 -0.7071067811865476 0.0
outer loop
vertex 56.464466094067255 13.535533905932736 2.8199664825478975e-15
vertex 57.499999999999986 14.330127018922191 10.0
vertex 56.464466094067255 13.535533905932736 10.0
endloop
endfacet
facet normal 0.7071067811865476 -0.7071067811865476 0.0
outer loop
vertex 56.464466094067255 13.535533905932736 2.8199664825478975e-15
vertex 55.66987298107779 12.499999999999996 10.0
vertex 55.66987298107779 12.499999999999996 2.8199664825478975e-15
endloop
endfacet
facet normal 0.8660254037844393 -0.49999999999999933 0.0
outer loop
vertex 55.66987298107779 12.499999999999996 10.0
vertex 56.464466094067255 13.535533905932736 2.8199664825478975e-15
vertex 56.464466094067255 13.535533905932736 10.0
endloop
endfacet
facet normal -0.7071067811865472 -0.707106781186548 0.0
outer loop
vertex 63.53553390593272 13.53553390593274 10.0
vertex 64.3301270189222 12.500000000000002 2.8199664825478975e-15
vertex 64.3301270189222 12.500000000000002 10.0
endloop
endfacet
facet normal -0.8660254037844382 -0.500000000000001 0.0
outer loop
vertex 64.3301270189222 12.500000000000002 2.8199664825478975e-15
vertex 63.53553390593272 13.53553390593274 10.0
vertex 63.53553390593272 13.53553390593274 2.8199664825478975e-15
endloop
endfacet
facet normal -0.5 -0.8660254037844387 0.0
outer loop
vertex 62.5 14.330127018922195 10.0
vertex 61.29409522551259 14.829629131445342 2.8199664825478975e-15
vertex 62.5 14.330127018922195 2.8199664825478975e-15
endloop
endfacet
facet normal -0.25881904510252035 -0.9659258262890684 0.0
outer loop
vertex 61.29409522551259 14.829629131445342 2.8199664825478975e-15
vertex 62.5 14.330127018922195 10.0
vertex 61.29409522551259 14.829629131445342 10.0
endloop
endfacet
facet normal 0.9659258262890683 -0.25881904510252074 0.0
outer loop
vertex 55.170370868554656 11.294095225512601 2.8199664825478975e-15
vertex 54.99999999999999 9.999999999999998 10.0
vertex 54.99999999999999 9.999999999999998 2.8199664825478975e-15
endloop
endfacet
facet normal 1.0 -2.1386663749552568e-16 0.0
outer loop
vertex 54.99999999999999 9.999999999999998 10.0
vertex 55.170370868554656 11.294095225512601 2.8199664825478975e-15
vertex 55.170370868554656 11.294095225512601 10.0
endloop
endfacet
facet normal -0.25881904510252035 -0.9659258262890684 0.0
outer loop
vertex 61.29409522551259 14.829629131445342 10.0
vertex 59.99999999999999 15.0 2.8199664825478975e-15
vertex 61.29409522551259 14.829629131445342 2.8199664825478975e-15
endloop
endfacet
facet normal -2.851555166607009e-16 -1.0 0.0
outer loop
vertex 59.99999999999999 15.0 2.8199664825478975e-15
vertex 61.29409522551259 14.829629131445342 10.0
vertex 59.99999999999999 15.0 10.0
endloop
endfacet
facet normal 0.0 -1.0 0.0
outer loop
vertex 70.0 0.0 10.0
vertex 49.99999999999999 0.0 0.0
vertex 70.0 0.0 0.0
endloop
endfacet
facet normal 0.0 -1.0 0.0
outer loop
vertex 49.99999999999999 0.0 0.0
vertex 70.0 0.0 10.0
vertex 49.99999999999999 0.0 10.0
endloop
endfacet
endsolid PontCubeTrou
