solid PontCubeTrou
facet normal 0.0 -1.0 0.0
outer loop
vertex 29.999999999999996 0.0 39.99999999999999
vertex 0.0 0.0 20.0
vertex 29.999999999999996 0.0 20.0
endloop
endfacet
facet normal 0.0 -1.0 0.0
outer loop
vertex 0.0 0.0 20.0
vertex 29.999999999999996 0.0 39.99999999999999
vertex 0.0 0.0 39.99999999999999
endloop
endfacet
facet normal 0.0 1.0 0.0
outer loop
vertex 0.0 20.0 39.99999999999999
vertex 29.999999999999996 20.0 20.0
vertex 0.0 20.0 20.0
endloop
endfacet
facet normal 0.0 1.0 0.0
outer loop
vertex 29.999999999999996 20.0 20.0
vertex 0.0 20.0 39.99999999999999
vertex 29.999999999999996 20.0 39.99999999999999
endloop
endfacet
facet normal 1.0 0.0 0.0
outer loop
vertex 29.999999999999996 20.0 20.0
vertex 29.999999999999996 0.0 39.99999999999999
vertex 29.999999999999996 0.0 20.0
endloop
endfacet
facet normal 1.0 0.0 0.0
outer loop
vertex 29.999999999999996 0.0 39.99999999999999
vertex 29.999999999999996 20.0 20.0
vertex 29.999999999999996 20.0 39.99999999999999
endloop
endfacet
facet normal 1.1584442864340977e-16 -1.0 0.0
outer loop
vertex 7.5 5.0 20.0
vertex 6.205904774487395 5.1703708685546585 0.0
vertex 7.5 5.0 0.0
endloop
endfacet
facet normal -0.2588190451025208 -0.9659258262890684 0.0
outer loop
vertex 6.205904774487395 5.1703708685546585 0.0
vertex 7.5 5.0 20.0
vertex 6.205904774487395 5.1703708685546585 20.0
endloop
endfacet
facet normal -1.0 -2.1386663749552568e-16 0.0
outer loop
vertex 17.499999999999996 10.0 20.0
vertex 17.670370868554656 8.705904774487395 0.0
vertex 17.670370868554656 8.705904774487395 20.0
endloop
endfacet
facet normal -0.9659258262890683 -0.2588190451025207 0.0
outer loop
vertex 17.670370868554656 8.705904774487395 0.0
vertex 17.499999999999996 10.0 20.0
vertex 17.499999999999996 10.0 0.0
endloop
endfacet
facet normal -0.9659258262890681 0.2588190451025216 0.0
outer loop
vertex 17.670370868554656 11.294095225512608 20.0
vertex 17.499999999999996 10.0 0.0
vertex 17.499999999999996 10.0 20.0
endloop
endfacet
facet normal -1.0 -2.1386663749552568e-16 0.0
outer loop
vertex 17.499999999999996 10.0 0.0
vertex 17.670370868554656 11.294095225512608 20.0
vertex 17.670370868554656 11.294095225512608 0.0
endloop
endfacet
facet normal 0.0 0.0 1.0
outer loop
vertex 29.999999999999996 0.0 39.99999999999999
vertex 0.0 20.0 39.99999999999999
vertex 0.0 0.0 39.99999999999999
endloop
endfacet
facet normal 0.0 0.0 1.0
outer loop
vertex 0.0 20.0 39.99999999999999
vertex 29.999999999999996 0.0 39.99999999999999
vertex 29.999999999999996 20.0 39.99999999999999
endloop
endfacet
facet normal 0.0 0.0 -1.0
outer loop
vertex 0.0 20.0 20.0
vertex 2.67037086855466 11.294095225512608 20.0
vertex 0.0 0.0 20.0
endloop
endfacet
facet normal 0.0 0.0 -1.0
outer loop
vertex 2.67037086855466 11.294095225512608 20.0
vertex 0.0 20.0 20.0
vertex 3.1698729810778086 12.500000000000002 20.0
endloop
endfacet
facet normal 0.0 0.0 -1.0
outer loop
vertex 3.1698729810778086 12.500000000000002 20.0
vertex 0.0 20.0 20.0
vertex 3.9644660940672636 13.53553390593274 20.0
endloop
endfacet
facet normal 0.0 0.0 -1.0
outer loop
vertex 3.9644660940672636 13.53553390593274 20.0
vertex 0.0 20.0 20.0
vertex 5.0000000000000036 14.330127018922195 20.0
endloop
endfacet
facet normal 0.0 0.0 -1.0
outer loop
vertex 5.0000000000000036 14.330127018922195 20.0
vertex 0.0 20.0 20.0
vertex 6.205904774487399 14.829629131445342 20.0
endloop
endfacet
facet normal 0.0 0.0 -1.0
outer loop
vertex 6.205904774487399 14.829629131445342 20.0
vertex 0.0 20.0 20.0
vertex 29.999999999999996 20.0 20.0
endloop
endfacet
facet normal 0.0 0.0 -1.0
outer loop
vertex 0.0 0.0 20.0
vertex 2.67037086855466 11.294095225512608 20.0
vertex 2.5000000000000004 10.0 20.0
endloop
endfacet
facet normal 0.0 0.0 -1.0
outer loop
vertex 6.205904774487399 14.829629131445342 20.0
vertex 29.999999999999996 20.0 20.0
vertex 7.500000000000002 15.0 20.0
endloop
endfacet
facet normal 0.0 0.0 -1.0
outer loop
vertex 7.500000000000002 15.0 20.0
vertex 29.999999999999996 20.0 20.0
vertex 8.794095225512608 14.829629131445342 20.0
endloop
endfacet
facet normal 0.0 0.0 -1.0
outer loop
vertex 8.794095225512608 14.829629131445342 20.0
vertex 29.999999999999996 20.0 20.0
vertex 10.000000000000004 14.330127018922191 20.0
endloop
endfacet
facet normal 0.0 0.0 -1.0
outer loop
vertex 10.000000000000004 14.330127018922191 20.0
vertex 29.999999999999996 20.0 20.0
vertex 11.03553390593274 13.535533905932736 20.0
endloop
endfacet
facet normal 0.0 0.0 -1.0
outer loop
vertex 11.03553390593274 13.535533905932736 20.0
vertex 29.999999999999996 20.0 20.0
vertex 11.830127018922195 12.499999999999998 20.0
endloop
endfacet
facet normal 0.0 0.0 -1.0
outer loop
vertex 11.830127018922195 12.499999999999998 20.0
vertex 29.999999999999996 20.0 20.0
vertex 12.329629131445342 11.294095225512601 20.0
endloop
endfacet
facet normal 0.0 0.0 -1.0
outer loop
vertex 12.329629131445342 11.294095225512601 20.0
vertex 29.999999999999996 20.0 20.0
vertex 20.0 14.330127018922195 20.0
endloop
endfacet
facet normal 0.0 0.0 -1.0
outer loop
vertex 12.329629131445342 11.294095225512601 20.0
vertex 20.0 14.330127018922195 20.0
vertex 12.5 10.0 20.0
endloop
endfacet
facet normal 0.0 0.0 -1.0
outer loop
vertex 12.5 10.0 20.0
vertex 20.0 14.330127018922195 20.0
vertex 18.96446609406726 13.53553390593274 20.0
endloop
endfacet
facet normal 0.0 0.0 -1.0
outer loop
vertex 12.5 10.0 20.0
vertex 18.96446609406726 13.53553390593274 20.0
vertex 18.169872981077805 12.500000000000002 20.0
endloop
endfacet
facet normal 0.0 0.0 -1.0
outer loop
vertex 12.5 10.0 20.0
vertex 18.169872981077805 12.500000000000002 20.0
vertex 17.670370868554656 11.294095225512608 20.0
endloop
endfacet
facet normal 0.0 0.0 -1.0
outer loop
vertex 12.5 10.0 20.0
vertex 17.670370868554656 11.294095225512608 20.0
vertex 17.499999999999996 10.0 20.0
endloop
endfacet
facet normal 0.0 0.0 -1.0
outer loop
vertex 20.0 14.330127018922195 20.0
vertex 29.999999999999996 20.0 20.0
vertex 21.205904774487397 14.829629131445342 20.0
endloop
endfacet
facet normal 0.0 0.0 -1.0
outer loop
vertex 21.205904774487397 14.829629131445342 20.0
vertex 29.999999999999996 20.0 20.0
vertex 22.499999999999996 15.0 20.0
endloop
endfacet
facet normal 0.0 0.0 -1.0
outer loop
vertex 22.499999999999996 15.0 20.0
vertex 29.999999999999996 20.0 20.0
vertex 23.794095225512603 14.829629131445339 20.0
endloop
endfacet
facet normal 0.0 0.0 -1.0
outer loop
vertex 23.794095225512603 14.829629131445339 20.0
vertex 29.999999999999996 20.0 20.0
vertex 24.999999999999996 14.330127018922191 20.0
endloop
endfacet
facet normal 0.0 0.0 -1.0
outer loop
vertex 24.999999999999996 14.330127018922191 20.0
vertex 29.999999999999996 20.0 20.0
vertex 26.035533905932734 13.535533905932734 20.0
endloop
endfacet
facet normal 0.0 0.0 -1.0
outer loop
vertex 26.035533905932734 13.535533905932734 20.0
vertex 29.999999999999996 20.0 20.0
vertex 26.830127018922187 12.499999999999998 20.0
endloop
endfacet
facet normal 0.0 0.0 -1.0
outer loop
vertex 26.830127018922187 12.499999999999998 20.0
vertex 29.999999999999996 20.0 20.0
vertex 27.329629131445337 11.294095225512601 20.0
endloop
endfacet
facet normal 0.0 0.0 -1.0
outer loop
vertex 27.329629131445337 11.294095225512601 20.0
vertex 29.999999999999996 20.0 20.0
vertex 27.499999999999996 10.0 20.0
endloop
endfacet
facet normal 0.0 0.0 -1.0
outer loop
vertex 0.0 0.0 20.0
vertex 6.205904774487395 5.1703708685546585 20.0
vertex 29.999999999999996 0.0 20.0
endloop
endfacet
facet normal 0.0 0.0 -1.0
outer loop
vertex 6.205904774487395 5.1703708685546585 20.0
vertex 0.0 0.0 20.0
vertex 4.999999999999999 5.669872981077807 20.0
endloop
endfacet
facet normal 0.0 0.0 -1.0
outer loop
vertex 4.999999999999999 5.669872981077807 20.0
vertex 0.0 0.0 20.0
vertex 3.9644660940672622 6.464466094067263 20.0
endloop
endfacet
facet normal 0.0 0.0 -1.0
outer loop
vertex 3.9644660940672622 6.464466094067263 20.0
vertex 0.0 0.0 20.0
vertex 3.169872981077807 7.5 20.0
endloop
endfacet
facet normal 0.0 0.0 -1.0
outer loop
vertex 3.169872981077807 7.5 20.0
vertex 0.0 0.0 20.0
vertex 2.670370868554659 8.705904774487395 20.0
endloop
endfacet
facet normal 0.0 0.0 -1.0
outer loop
vertex 2.670370868554659 8.705904774487395 20.0
vertex 0.0 0.0 20.0
vertex 2.5000000000000004 10.0 20.0
endloop
endfacet
facet normal 0.0 0.0 -1.0
outer loop
vertex 29.999999999999996 0.0 20.0
vertex 6.205904774487395 5.1703708685546585 20.0
vertex 7.5 5.0 20.0
endloop
endfacet
facet normal 0.0 0.0 -1.0
outer loop
vertex 29.999999999999996 0.0 20.0
vertex 7.5 5.0 20.0
vertex 8.794095225512603 5.1703708685546585 20.0
endloop
endfacet
facet normal 0.0 0.0 -1.0
outer loop
vertex 29.999999999999996 0.0 20.0
vertex 8.794095225512603 5.1703708685546585 20.0
vertex 9.999999999999998 5.669872981077806 20.0
endloop
endfacet
facet normal 0.0 0.0 -1.0
outer loop
vertex 29.999999999999996 0.0 20.0
vertex 9.999999999999998 5.669872981077806 20.0
vertex 11.035533905932738 6.464466094067262 20.0
endloop
endfacet
facet normal 0.0 0.0 -1.0
outer loop
vertex 29.999999999999996 0.0 20.0
vertex 11.035533905932738 6.464466094067262 20.0
vertex 11.830127018922193 7.499999999999997 20.0
endloop
endfacet
facet normal 0.0 0.0 -1.0
outer loop
vertex 29.999999999999996 0.0 20.0
vertex 11.830127018922193 7.499999999999997 20.0
vertex 12.32962913144534 8.705904774487395 20.0
endloop
endfacet
facet normal 0.0 0.0 -1.0
outer loop
vertex 29.999999999999996 0.0 20.0
vertex 12.32962913144534 8.705904774487395 20.0
vertex 19.999999999999993 5.669872981077807 20.0
endloop
endfacet
facet normal 0.0 0.0 -1.0
outer loop
vertex 19.999999999999993 5.669872981077807 20.0
vertex 12.32962913144534 8.705904774487395 20.0
vertex 12.5 10.0 20.0
endloop
endfacet
facet normal 0.0 0.0 -1.0
outer loop
vertex 19.999999999999993 5.669872981077807 20.0
vertex 12.5 10.0 20.0
vertex 18.96446609406726 6.464466094067263 20.0
endloop
endfacet
facet normal 0.0 0.0 -1.0
outer loop
vertex 18.96446609406726 6.464466094067263 20.0
vertex 12.5 10.0 20.0
vertex 18.169872981077802 7.5 20.0
endloop
endfacet
facet normal 0.0 0.0 -1.0
outer loop
vertex 18.169872981077802 7.5 20.0
vertex 12.5 10.0 20.0
vertex 17.670370868554656 8.705904774487395 20.0
endloop
endfacet
facet normal 0.0 0.0 -1.0
outer loop
vertex 17.670370868554656 8.705904774487395 20.0
vertex 12.5 10.0 20.0
vertex 17.499999999999996 10.0 20.0
endloop
endfacet
facet normal 0.0 0.0 -1.0
outer loop
vertex 29.999999999999996 0.0 20.0
vertex 19.999999999999993 5.669872981077807 20.0
vertex 21.20590477448739 5.170370868554659 20.0
endloop
endfacet
facet normal 0.0 0.0 -1.0
outer loop
vertex 29.999999999999996 0.0 20.0
vertex 21.20590477448739 5.170370868554659 20.0
vertex 22.499999999999996 5.000000000000001 20.0
endloop
endfacet
facet normal 0.0 0.0 -1.0
outer loop
vertex 29.999999999999996 0.0 20.0
vertex 22.499999999999996 5.000000000000001 20.0
vertex 23.7940952255126 5.170370868554659 20.0
endloop
endfacet
facet normal 0.0 0.0 -1.0
outer loop
vertex 29.999999999999996 0.0 20.0
vertex 23.7940952255126 5.170370868554659 20.0
vertex 24.999999999999993 5.669872981077807 20.0
endloop
endfacet
facet normal 0.0 0.0 -1.0
outer loop
vertex 29.999999999999996 0.0 20.0
vertex 24.999999999999993 5.669872981077807 20.0
vertex 26.035533905932734 6.464466094067263 20.0
endloop
endfacet
facet normal 0.0 0.0 -1.0
outer loop
vertex 29.999999999999996 0.0 20.0
vertex 26.035533905932734 6.464466094067263 20.0
vertex 26.830127018922187 7.499999999999999 20.0
endloop
endfacet
facet normal 0.0 0.0 -1.0
outer loop
vertex 29.999999999999996 0.0 20.0
vertex 26.830127018922187 7.499999999999999 20.0
vertex 27.329629131445337 8.705904774487395 20.0
endloop
endfacet
facet normal 0.0 0.0 -1.0
outer loop
vertex 29.999999999999996 0.0 20.0
vertex 27.329629131445337 8.705904774487395 20.0
vertex 27.499999999999996 10.0 20.0
endloop
endfacet
facet normal 0.0 0.0 -1.0
outer loop
vertex 29.999999999999996 0.0 20.0
vertex 27.499999999999996 10.0 20.0
vertex 29.999999999999996 20.0 20.0
endloop
endfacet
facet normal -0.2588190451025208 -0.9659258262890684 0.0
outer loop
vertex 6.205904774487395 5.1703708685546585 20.0
vertex 4.999999999999999 5.669872981077807 0.0
vertex 6.205904774487395 5.1703708685546585 0.0
endloop
endfacet
facet normal -0.5000000000000004 -0.8660254037844385 0.0
outer loop
vertex 4.999999999999999 5.669872981077807 0.0
vertex 6.205904774487395 5.1703708685546585 20.0
vertex 4.999999999999999 5.669872981077807 20.0
endloop
endfacet
facet normal -0.9659258262890682 0.2588190451025214 0.0
outer loop
vertex 2.67037086855466 11.294095225512608 20.0
vertex 2.5000000000000004 10.0 0.0
vertex 2.5000000000000004 10.0 20.0
endloop
endfacet
facet normal -1.0 5.346665937388143e-17 0.0
outer loop
vertex 2.5000000000000004 10.0 0.0
vertex 2.67037086855466 11.294095225512608 20.0
vertex 2.67037086855466 11.294095225512608 0.0
endloop
endfacet
facet normal -1.0 0.0 0.0
outer loop
vertex 0.0 20.0 39.99999999999999
vertex 0.0 0.0 20.0
vertex 0.0 0.0 39.99999999999999
endloop
endfacet
facet normal -1.0 0.0 0.0
outer loop
vertex 0.0 0.0 20.0
vertex 0.0 20.0 39.99999999999999
vertex 0.0 20.0 20.0
endloop
endfacet
facet normal -0.707106781186547 0.707106781186548 0.0
outer loop
vertex 3.9644660940672636 13.53553390593274 20.0
vertex 3.1698729810778086 12.500000000000002 0.0
vertex 3.1698729810778086 12.500000000000002 20.0
endloop
endfacet
facet normal -0.8660254037844386 0.5000000000000004 0.0
outer loop
vertex 3.1698729810778086 12.500000000000002 0.0
vertex 3.9644660940672636 13.53553390593274 20.0
vertex 3.9644660940672636 13.53553390593274 0.0
endloop
endfacet
facet normal -1.0 5.346665937388143e-17 0.0
outer loop
vertex 2.5000000000000004 10.0 20.0
vertex 2.670370868554659 8.705904774487395 0.0
vertex 2.670370868554659 8.705904774487395 20.0
endloop
endfacet
facet normal -0.9659258262890683 -0.2588190451025207 0.0
outer loop
vertex 2.670370868554659 8.705904774487395 0.0
vertex 2.5000000000000004 10.0 20.0
vertex 2.5000000000000004 10.0 0.0
endloop
endfacet
facet normal -0.8660254037844388 -0.5000000000000001 0.0
outer loop
vertex 3.169872981077807 7.5 20.0
vertex 3.9644660940672622 6.464466094067263 0.0
vertex 3.9644660940672622 6.464466094067263 20.0
endloop
endfacet
facet normal -0.7071067811865477 -0.7071067811865474 0.0
outer loop
vertex 3.9644660940672622 6.464466094067263 0.0
vertex 3.169872981077807 7.5 20.0
vertex 3.169872981077807 7.5 0.0
endloop
endfacet
facet normal -0.9659258262890683 -0.2588190451025207 0.0
outer loop
vertex 2.670370868554659 8.705904774487395 20.0
vertex 3.169872981077807 7.5 0.0
vertex 3.169872981077807 7.5 20.0
endloop
endfacet
facet normal -0.8660254037844388 -0.5000000000000001 0.0
outer loop
vertex 3.169872981077807 7.5 0.0
vertex 2.670370868554659 8.705904774487395 20.0
vertex 2.670370868554659 8.705904774487395 0.0
endloop
endfacet
facet normal 0.49999999999999956 -0.8660254037844392 0.0
outer loop
vertex 9.999999999999998 5.669872981077806 20.0
vertex 8.794095225512603 5.1703708685546585 0.0
vertex 9.999999999999998 5.669872981077806 0.0
endloop
endfacet
facet normal 0.25881904510252074 -0.9659258262890683 0.0
outer loop
vertex 8.794095225512603 5.1703708685546585 0.0
vertex 9.999999999999998 5.669872981077806 20.0
vertex 8.794095225512603 5.1703708685546585 20.0
endloop
endfacet
facet normal 0.9659258262890684 -0.2588190451025204 0.0
outer loop
vertex 12.32962913144534 8.705904774487395 0.0
vertex 11.830127018922193 7.499999999999997 20.0
vertex 11.830127018922193 7.499999999999997 0.0
endloop
endfacet
facet normal 0.8660254037844387 -0.4999999999999999 0.0
outer loop
vertex 11.830127018922193 7.499999999999997 20.0
vertex 12.32962913144534 8.705904774487395 0.0
vertex 12.32962913144534 8.705904774487395 20.0
endloop
endfacet
facet normal 0.5000000000000009 0.8660254037844383 0.0
outer loop
vertex 10.000000000000004 14.330127018922191 20.0
vertex 11.03553390593274 13.535533905932736 0.0
vertex 10.000000000000004 14.330127018922191 0.0
endloop
endfacet
facet normal 0.7071067811865477 0.7071067811865474 0.0
outer loop
vertex 11.03553390593274 13.535533905932736 0.0
vertex 10.000000000000004 14.330127018922191 20.0
vertex 11.03553390593274 13.535533905932736 20.0
endloop
endfacet
facet normal 0.25881904510252174 0.9659258262890681 0.0
outer loop
vertex 8.794095225512608 14.829629131445342 20.0
vertex 10.000000000000004 14.330127018922191 0.0
vertex 8.794095225512608 14.829629131445342 0.0
endloop
endfacet
facet normal 0.5000000000000009 0.8660254037844383 0.0
outer loop
vertex 10.000000000000004 14.330127018922191 0.0
vertex 8.794095225512608 14.829629131445342 20.0
vertex 10.000000000000004 14.330127018922191 20.0
endloop
endfacet
facet normal 0.8660254037844392 0.4999999999999994 0.0
outer loop
vertex 11.830127018922195 12.499999999999998 0.0
vertex 12.329629131445342 11.294095225512601 20.0
vertex 12.329629131445342 11.294095225512601 0.0
endloop
endfacet
facet normal 0.9659258262890684 0.25881904510252013 0.0
outer loop
vertex 12.329629131445342 11.294095225512601 20.0
vertex 11.830127018922195 12.499999999999998 0.0
vertex 11.830127018922195 12.499999999999998 20.0
endloop
endfacet
facet normal 0.8660254037844387 -0.4999999999999999 0.0
outer loop
vertex 11.830127018922193 7.499999999999997 0.0
vertex 11.035533905932738 6.464466094067262 20.0
vertex 11.035533905932738 6.464466094067262 0.0
endloop
endfacet
facet normal 0.707106781186547 -0.707106781186548 0.0
outer loop
vertex 11.035533905932738 6.464466094067262 20.0
vertex 11.830127018922193 7.499999999999997 0.0
vertex 11.830127018922193 7.499999999999997 20.0
endloop
endfacet
facet normal 0.707106781186547 -0.707106781186548 0.0
outer loop
vertex 11.035533905932738 6.464466094067262 20.0
vertex 9.999999999999998 5.669872981077806 0.0
vertex 11.035533905932738 6.464466094067262 0.0
endloop
endfacet
facet normal 0.49999999999999956 -0.8660254037844392 0.0
outer loop
vertex 9.999999999999998 5.669872981077806 0.0
vertex 11.035533905932738 6.464466094067262 20.0
vertex 9.999999999999998 5.669872981077806 20.0
endloop
endfacet
facet normal -2.1386663749552568e-16 1.0 0.0
outer loop
vertex 7.500000000000002 15.0 20.0
vertex 8.794095225512608 14.829629131445342 0.0
vertex 7.500000000000002 15.0 0.0
endloop
endfacet
facet normal 0.25881904510252174 0.9659258262890681 0.0
outer loop
vertex 8.794095225512608 14.829629131445342 0.0
vertex 7.500000000000002 15.0 20.0
vertex 8.794095225512608 14.829629131445342 20.0
endloop
endfacet
facet normal -0.5000000000000004 -0.8660254037844385 0.0
outer loop
vertex 4.999999999999999 5.669872981077807 20.0
vertex 3.9644660940672622 6.464466094067263 0.0
vertex 4.999999999999999 5.669872981077807 0.0
endloop
endfacet
facet normal -0.7071067811865477 -0.7071067811865474 0.0
outer loop
vertex 3.9644660940672622 6.464466094067263 0.0
vertex 4.999999999999999 5.669872981077807 20.0
vertex 3.9644660940672622 6.464466094067263 20.0
endloop
endfacet
facet normal -0.25881904510252085 -0.9659258262890684 0.0
outer loop
vertex 21.20590477448739 5.170370868554659 20.0
vertex 19.999999999999993 5.669872981077807 0.0
vertex 21.20590477448739 5.170370868554659 0.0
endloop
endfacet
facet normal -0.5000000000000001 -0.8660254037844386 0.0
outer loop
vertex 19.999999999999993 5.669872981077807 0.0
vertex 21.20590477448739 5.170370868554659 20.0
vertex 19.999999999999993 5.669872981077807 20.0
endloop
endfacet
facet normal 0.9659258262890684 0.25881904510252013 0.0
outer loop
vertex 12.329629131445342 11.294095225512601 0.0
vertex 12.5 10.0 20.0
vertex 12.5 10.0 0.0
endloop
endfacet
facet normal 1.0 -3.1188884634764164e-16 0.0
outer loop
vertex 12.5 10.0 20.0
vertex 12.329629131445342 11.294095225512601 0.0
vertex 12.329629131445342 11.294095225512601 20.0
endloop
endfacet
facet normal -0.25881904510252074 0.9659258262890683 0.0
outer loop
vertex 6.205904774487399 14.829629131445342 20.0
vertex 7.500000000000002 15.0 0.0
vertex 6.205904774487399 14.829629131445342 0.0
endloop
endfacet
facet normal -2.1386663749552568e-16 1.0 0.0
outer loop
vertex 7.500000000000002 15.0 0.0
vertex 6.205904774487399 14.829629131445342 20.0
vertex 7.500000000000002 15.0 20.0
endloop
endfacet
facet normal -0.8660254037844388 -0.4999999999999999 0.0
outer loop
vertex 18.169872981077802 7.5 20.0
vertex 18.96446609406726 6.464466094067263 0.0
vertex 18.96446609406726 6.464466094067263 20.0
endloop
endfacet
facet normal -0.7071067811865477 -0.7071067811865474 0.0
outer loop
vertex 18.96446609406726 6.464466094067263 0.0
vertex 18.169872981077802 7.5 20.0
vertex 18.169872981077802 7.5 0.0
endloop
endfacet
facet normal 0.0 0.0 -1.0
outer loop
vertex 17.670370868554656 11.294095225512608 0.0
vertex 17.670370868554656 8.705904774487395 0.0
vertex 17.499999999999996 10.0 0.0
endloop
endfacet
facet normal 0.0 0.0 -1.0
outer loop
vertex 17.670370868554656 8.705904774487395 0.0
vertex 17.670370868554656 11.294095225512608 0.0
vertex 18.169872981077805 12.500000000000002 0.0
endloop
endfacet
facet normal 0.0 0.0 -1.0
outer loop
vertex 17.670370868554656 8.705904774487395 0.0
vertex 18.169872981077805 12.500000000000002 0.0
vertex 18.169872981077802 7.5 0.0
endloop
endfacet
facet normal 0.0 0.0 -1.0
outer loop
vertex 18.169872981077802 7.5 0.0
vertex 18.169872981077805 12.500000000000002 0.0
vertex 18.96446609406726 6.464466094067263 0.0
endloop
endfacet
facet normal 0.0 0.0 -1.0
outer loop
vertex 18.96446609406726 6.464466094067263 0.0
vertex 18.169872981077805 12.500000000000002 0.0
vertex 18.96446609406726 13.53553390593274 0.0
endloop
endfacet
facet normal 0.0 0.0 -1.0
outer loop
vertex 18.96446609406726 6.464466094067263 0.0
vertex 18.96446609406726 13.53553390593274 0.0
vertex 19.999999999999993 5.669872981077807 0.0
endloop
endfacet
facet normal 0.0 0.0 -1.0
outer loop
vertex 19.999999999999993 5.669872981077807 0.0
vertex 18.96446609406726 13.53553390593274 0.0
vertex 20.0 14.330127018922195 0.0
endloop
endfacet
facet normal 0.0 0.0 -1.0
outer loop
vertex 19.999999999999993 5.669872981077807 0.0
vertex 20.0 14.330127018922195 0.0
vertex 21.20590477448739 5.170370868554659 0.0
endloop
endfacet
facet normal 0.0 0.0 -1.0
outer loop
vertex 21.20590477448739 5.170370868554659 0.0
vertex 20.0 14.330127018922195 0.0
vertex 21.205904774487397 14.829629131445342 0.0
endloop
endfacet
facet normal 0.0 0.0 -1.0
outer loop
vertex 21.20590477448739 5.170370868554659 0.0
vertex 21.205904774487397 14.829629131445342 0.0
vertex 22.499999999999996 5.000000000000001 0.0
endloop
endfacet
facet normal 0.0 0.0 -1.0
outer loop
vertex 22.499999999999996 5.000000000000001 0.0
vertex 21.205904774487397 14.829629131445342 0.0
vertex 22.499999999999996 15.0 0.0
endloop
endfacet
facet normal 0.0 0.0 -1.0
outer loop
vertex 22.499999999999996 5.000000000000001 0.0
vertex 22.499999999999996 15.0 0.0
vertex 23.794095225512603 14.829629131445339 0.0
endloop
endfacet
facet normal 0.0 0.0 -1.0
outer loop
vertex 22.499999999999996 5.000000000000001 0.0
vertex 23.794095225512603 14.829629131445339 0.0
vertex 23.7940952255126 5.170370868554659 0.0
endloop
endfacet
facet normal 0.0 0.0 -1.0
outer loop
vertex 23.7940952255126 5.170370868554659 0.0
vertex 23.794095225512603 14.829629131445339 0.0
vertex 24.999999999999993 5.669872981077807 0.0
endloop
endfacet
facet normal 0.0 0.0 -1.0
outer loop
vertex 24.999999999999993 5.669872981077807 0.0
vertex 23.794095225512603 14.829629131445339 0.0
vertex 24.999999999999996 14.330127018922191 0.0
endloop
endfacet
facet normal 0.0 0.0 -1.0
outer loop
vertex 24.999999999999993 5.669872981077807 0.0
vertex 24.999999999999996 14.330127018922191 0.0
vertex 26.035533905932734 6.464466094067263 0.0
endloop
endfacet
facet normal 0.0 0.0 -1.0
outer loop
vertex 26.035533905932734 6.464466094067263 0.0
vertex 24.999999999999996 14.330127018922191 0.0
vertex 26.035533905932734 13.535533905932734 0.0
endloop
endfacet
facet normal 0.0 0.0 -1.0
outer loop
vertex 26.035533905932734 6.464466094067263 0.0
vertex 26.035533905932734 13.535533905932734 0.0
vertex 26.830127018922187 12.499999999999998 0.0
endloop
endfacet
facet normal 0.0 0.0 -1.0
outer loop
vertex 26.035533905932734 6.464466094067263 0.0
vertex 26.830127018922187 12.499999999999998 0.0
vertex 26.830127018922187 7.499999999999999 0.0
endloop
endfacet
facet normal 0.0 0.0 -1.0
outer loop
vertex 26.830127018922187 7.499999999999999 0.0
vertex 26.830127018922187 12.499999999999998 0.0
vertex 27.329629131445337 11.294095225512601 0.0
endloop
endfacet
facet normal 0.0 0.0 -1.0
outer loop
vertex 26.830127018922187 7.499999999999999 0.0
vertex 27.329629131445337 11.294095225512601 0.0
vertex 27.329629131445337 8.705904774487395 0.0
endloop
endfacet
facet normal 0.0 0.0 -1.0
outer loop
vertex 27.329629131445337 8.705904774487395 0.0
vertex 27.329629131445337 11.294095225512601 0.0
vertex 27.499999999999996 10.0 0.0
endloop
endfacet
facet normal 1.0 -3.1188884634764164e-16 0.0
outer loop
vertex 12.5 10.0 0.0
vertex 12.32962913144534 8.705904774487395 20.0
vertex 12.32962913144534 8.705904774487395 0.0
endloop
endfacet
facet normal 0.9659258262890684 -0.2588190451025204 0.0
outer loop
vertex 12.32962913144534 8.705904774487395 20.0
vertex 12.5 10.0 0.0
vertex 12.5 10.0 20.0
endloop
endfacet
facet normal -0.49999999999999933 0.8660254037844393 0.0
outer loop
vertex 5.0000000000000036 14.330127018922195 20.0
vertex 6.205904774487399 14.829629131445342 0.0
vertex 5.0000000000000036 14.330127018922195 0.0
endloop
endfacet
facet normal -0.25881904510252074 0.9659258262890683 0.0
outer loop
vertex 6.205904774487399 14.829629131445342 0.0
vertex 5.0000000000000036 14.330127018922195 20.0
vertex 6.205904774487399 14.829629131445342 20.0
endloop
endfacet
facet normal -0.2588190451025209 0.9659258262890683 0.0
outer loop
vertex 21.205904774487397 14.829629131445342 20.0
vertex 22.499999999999996 15.0 0.0
vertex 21.205904774487397 14.829629131445342 0.0
endloop
endfacet
facet normal 6.415999124865772e-16 1.0 0.0
outer loop
vertex 22.499999999999996 15.0 0.0
vertex 21.205904774487397 14.829629131445342 20.0
vertex 22.499999999999996 15.0 20.0
endloop
endfacet
facet normal 0.25881904510252074 -0.9659258262890683 0.0
outer loop
vertex 8.794095225512603 5.1703708685546585 20.0
vertex 7.5 5.0 0.0
vertex 8.794095225512603 5.1703708685546585 0.0
endloop
endfacet
facet normal 1.1584442864340977e-16 -1.0 0.0
outer loop
vertex 7.5 5.0 0.0
vertex 8.794095225512603 5.1703708685546585 20.0
vertex 7.5 5.0 20.0
endloop
endfacet
facet normal 0.25881904510252196 0.965925826289068 0.0
outer loop
vertex 23.794095225512603 14.829629131445339 20.0
vertex 24.999999999999996 14.330127018922191 0.0
vertex 23.794095225512603 14.829629131445339 0.0
endloop
endfacet
facet normal 0.500000000000001 0.8660254037844382 0.0
outer loop
vertex 24.999999999999996 14.330127018922191 0.0
vertex 23.794095225512603 14.829629131445339 20.0
vertex 24.999999999999996 14.330127018922191 20.0
endloop
endfacet
facet normal 0.500000000000001 0.8660254037844382 0.0
outer loop
vertex 24.999999999999996 14.330127018922191 20.0
vertex 26.035533905932734 13.535533905932734 0.0
vertex 24.999999999999996 14.330127018922191 0.0
endloop
endfacet
facet normal 0.707106781186548 0.7071067811865472 0.0
outer loop
vertex 26.035533905932734 13.535533905932734 0.0
vertex 24.999999999999996 14.330127018922191 20.0
vertex 26.035533905932734 13.535533905932734 20.0
endloop
endfacet
facet normal -0.707106781186547 0.707106781186548 0.0
outer loop
vertex 3.9644660940672636 13.53553390593274 20.0
vertex 5.0000000000000036 14.330127018922195 0.0
vertex 3.9644660940672636 13.53553390593274 0.0
endloop
endfacet
facet normal -0.49999999999999933 0.8660254037844393 0.0
outer loop
vertex 5.0000000000000036 14.330127018922195 0.0
vertex 3.9644660940672636 13.53553390593274 20.0
vertex 5.0000000000000036 14.330127018922195 20.0
endloop
endfacet
facet normal 0.0 0.0 -1.0
outer loop
vertex 2.67037086855466 11.294095225512608 0.0
vertex 2.670370868554659 8.705904774487395 0.0
vertex 2.5000000000000004 10.0 0.0
endloop
endfacet
facet normal 0.0 0.0 -1.0
outer loop
vertex 2.670370868554659 8.705904774487395 0.0
vertex 2.67037086855466 11.294095225512608 0.0
vertex 3.169872981077807 7.5 0.0
endloop
endfacet
facet normal 0.0 0.0 -1.0
outer loop
vertex 3.169872981077807 7.5 0.0
vertex 2.67037086855466 11.294095225512608 0.0
vertex 3.1698729810778086 12.500000000000002 0.0
endloop
endfacet
facet normal 0.0 0.0 -1.0
outer loop
vertex 3.169872981077807 7.5 0.0
vertex 3.1698729810778086 12.500000000000002 0.0
vertex 3.9644660940672622 6.464466094067263 0.0
endloop
endfacet
facet normal 0.0 0.0 -1.0
outer loop
vertex 3.9644660940672622 6.464466094067263 0.0
vertex 3.1698729810778086 12.500000000000002 0.0
vertex 3.9644660940672636 13.53553390593274 0.0
endloop
endfacet
facet normal 0.0 0.0 -1.0
outer loop
vertex 3.9644660940672622 6.464466094067263 0.0
vertex 3.9644660940672636 13.53553390593274 0.0
vertex 4.999999999999999 5.669872981077807 0.0
endloop
endfacet
facet normal 0.0 0.0 -1.0
outer loop
vertex 4.999999999999999 5.669872981077807 0.0
vertex 3.9644660940672636 13.53553390593274 0.0
vertex 5.0000000000000036 14.330127018922195 0.0
endloop
endfacet
facet normal 0.0 0.0 -1.0
outer loop
vertex 4.999999999999999 5.669872981077807 0.0
vertex 5.0000000000000036 14.330127018922195 0.0
vertex 6.205904774487395 5.1703708685546585 0.0
endloop
endfacet
facet normal 0.0 0.0 -1.0
outer loop
vertex 6.205904774487395 5.1703708685546585 0.0
vertex 5.0000000000000036 14.330127018922195 0.0
vertex 6.205904774487399 14.829629131445342 0.0
endloop
endfacet
facet normal 0.0 0.0 -1.0
outer loop
vertex 6.205904774487395 5.1703708685546585 0.0
vertex 6.205904774487399 14.829629131445342 0.0
vertex 7.5 5.0 0.0
endloop
endfacet
facet normal 0.0 0.0 -1.0
outer loop
vertex 7.5 5.0 0.0
vertex 6.205904774487399 14.829629131445342 0.0
vertex 7.500000000000002 15.0 0.0
endloop
endfacet
facet normal 0.0 0.0 -1.0
outer loop
vertex 7.5 5.0 0.0
vertex 7.500000000000002 15.0 0.0
vertex 8.794095225512603 5.1703708685546585 0.0
endloop
endfacet
facet normal 0.0 0.0 -1.0
outer loop
vertex 8.794095225512603 5.1703708685546585 0.0
vertex 7.500000000000002 15.0 0.0
vertex 8.794095225512608 14.829629131445342 0.0
endloop
endfacet
facet normal 0.0 0.0 -1.0
outer loop
vertex 8.794095225512603 5.1703708685546585 0.0
vertex 8.794095225512608 14.829629131445342 0.0
vertex 9.999999999999998 5.669872981077806 0.0
endloop
endfacet
facet normal 0.0 0.0 -1.0
outer loop
vertex 9.999999999999998 5.669872981077806 0.0
vertex 8.794095225512608 14.829629131445342 0.0
vertex 10.000000000000004 14.330127018922191 0.0
endloop
endfacet
facet normal 0.0 0.0 -1.0
outer loop
vertex 9.999999999999998 5.669872981077806 0.0
vertex 10.000000000000004 14.330127018922191 0.0
vertex 11.035533905932738 6.464466094067262 0.0
endloop
endfacet
facet normal 0.0 0.0 -1.0
outer loop
vertex 11.035533905932738 6.464466094067262 0.0
vertex 10.000000000000004 14.330127018922191 0.0
vertex 11.03553390593274 13.535533905932736 0.0
endloop
endfacet
facet normal 0.0 0.0 -1.0
outer loop
vertex 11.035533905932738 6.464466094067262 0.0
vertex 11.03553390593274 13.535533905932736 0.0
vertex 11.830127018922193 7.499999999999997 0.0
endloop
endfacet
facet normal 0.0 0.0 -1.0
outer loop
vertex 11.830127018922193 7.499999999999997 0.0
vertex 11.03553390593274 13.535533905932736 0.0
vertex 11.830127018922195 12.499999999999998 0.0
endloop
endfacet
facet normal 0.0 0.0 -1.0
outer loop
vertex 11.830127018922193 7.499999999999997 0.0
vertex 11.830127018922195 12.499999999999998 0.0
vertex 12.32962913144534 8.705904774487395 0.0
endloop
endfacet
facet normal 0.0 0.0 -1.0
outer loop
vertex 12.32962913144534 8.705904774487395 0.0
vertex 11.830127018922195 12.499999999999998 0.0
vertex 12.329629131445342 11.294095225512601 0.0
endloop
endfacet
facet normal 0.0 0.0 -1.0
outer loop
vertex 12.32962913144534 8.705904774487395 0.0
vertex 12.329629131445342 11.294095225512601 0.0
vertex 12.5 10.0 0.0
endloop
endfacet
facet normal -0.707106781186547 0.707106781186548 0.0
outer loop
vertex 18.96446609406726 13.53553390593274 20.0
vertex 20.0 14.330127018922195 0.0
vertex 18.96446609406726 13.53553390593274 0.0
endloop
endfacet
facet normal -0.49999999999999933 0.8660254037844393 0.0
outer loop
vertex 20.0 14.330127018922195 0.0
vertex 18.96446609406726 13.53553390593274 20.0
vertex 20.0 14.330127018922195 20.0
endloop
endfacet
facet normal 0.7071067811865477 0.7071067811865474 0.0
outer loop
vertex 11.03553390593274 13.535533905932736 0.0
vertex 11.830127018922195 12.499999999999998 20.0
vertex 11.830127018922195 12.499999999999998 0.0
endloop
endfacet
facet normal 0.8660254037844392 0.4999999999999994 0.0
outer loop
vertex 11.830127018922195 12.499999999999998 20.0
vertex 11.03553390593274 13.535533905932736 0.0
vertex 11.03553390593274 13.535533905932736 20.0
endloop
endfacet
facet normal 6.415999124865772e-16 1.0 0.0
outer loop
vertex 22.499999999999996 15.0 20.0
vertex 23.794095225512603 14.829629131445339 0.0
vertex 22.499999999999996 15.0 0.0
endloop
endfacet
facet normal 0.25881904510252196 0.965925826289068 0.0
outer loop
vertex 23.794095225512603 14.829629131445339 0.0
vertex 22.499999999999996 15.0 20.0
vertex 23.794095225512603 14.829629131445339 20.0
endloop
endfacet
facet normal -0.8660254037844386 0.5000000000000004 0.0
outer loop
vertex 3.1698729810778086 12.500000000000002 20.0
vertex 2.67037086855466 11.294095225512608 0.0
vertex 2.67037086855466 11.294095225512608 20.0
endloop
endfacet
facet normal -0.9659258262890682 0.2588190451025214 0.0
outer loop
vertex 2.67037086855466 11.294095225512608 0.0
vertex 3.1698729810778086 12.500000000000002 20.0
vertex 3.1698729810778086 12.500000000000002 0.0
endloop
endfacet
facet normal -0.49999999999999933 0.8660254037844393 0.0
outer loop
vertex 20.0 14.330127018922195 20.0
vertex 21.205904774487397 14.829629131445342 0.0
vertex 20.0 14.330127018922195 0.0
endloop
endfacet
facet normal -0.2588190451025209 0.9659258262890683 0.0
outer loop
vertex 21.205904774487397 14.829629131445342 0.0
vertex 20.0 14.330127018922195 20.0
vertex 21.205904774487397 14.829629131445342 20.0
endloop
endfacet
facet normal -0.707106781186547 0.707106781186548 0.0
outer loop
vertex 18.96446609406726 13.53553390593274 20.0
vertex 18.169872981077805 12.500000000000002 0.0
vertex 18.169872981077805 12.500000000000002 20.0
endloop
endfacet
facet normal -0.8660254037844383 0.5000000000000009 0.0
outer loop
vertex 18.169872981077805 12.500000000000002 0.0
vertex 18.96446609406726 13.53553390593274 20.0
vertex 18.96446609406726 13.53553390593274 0.0
endloop
endfacet
facet normal 0.49999999999999967 -0.8660254037844388 0.0
outer loop
vertex 24.999999999999993 5.669872981077807 20.0
vertex 23.7940952255126 5.170370868554659 0.0
vertex 24.999999999999993 5.669872981077807 0.0
endloop
endfacet
facet normal 0.25881904510252074 -0.9659258262890683 0.0
outer loop
vertex 23.7940952255126 5.170370868554659 0.0
vertex 24.999999999999993 5.669872981077807 20.0
vertex 23.7940952255126 5.170370868554659 20.0
endloop
endfacet
facet normal 0.707106781186548 0.7071067811865472 0.0
outer loop
vertex 26.035533905932734 13.535533905932734 0.0
vertex 26.830127018922187 12.499999999999998 20.0
vertex 26.830127018922187 12.499999999999998 0.0
endloop
endfacet
facet normal 0.8660254037844387 0.4999999999999999 0.0
outer loop
vertex 26.830127018922187 12.499999999999998 20.0
vertex 26.035533905932734 13.535533905932734 0.0
vertex 26.035533905932734 13.535533905932734 20.0
endloop
endfacet
facet normal 0.9659258262890683 -0.2588190451025206 0.0
outer loop
vertex 27.329629131445337 8.705904774487395 0.0
vertex 26.830127018922187 7.499999999999999 20.0
vertex 26.830127018922187 7.499999999999999 0.0
endloop
endfacet
facet normal 0.8660254037844386 -0.5000000000000001 0.0
outer loop
vertex 26.830127018922187 7.499999999999999 20.0
vertex 27.329629131445337 8.705904774487395 0.0
vertex 27.329629131445337 8.705904774487395 20.0
endloop
endfacet
facet normal -0.8660254037844383 0.5000000000000009 0.0
outer loop
vertex 18.169872981077805 12.500000000000002 20.0
vertex 17.670370868554656 11.294095225512608 0.0
vertex 17.670370868554656 11.294095225512608 20.0
endloop
endfacet
facet normal -0.9659258262890681 0.2588190451025216 0.0
outer loop
vertex 17.670370868554656 11.294095225512608 0.0
vertex 18.169872981077805 12.500000000000002 20.0
vertex 18.169872981077805 12.500000000000002 0.0
endloop
endfacet
facet normal 0.8660254037844386 -0.5000000000000001 0.0
outer loop
vertex 26.830127018922187 7.499999999999999 0.0
vertex 26.035533905932734 6.464466094067263 20.0
vertex 26.035533905932734 6.464466094067263 0.0
endloop
endfacet
facet normal 0.7071067811865471 -0.7071067811865479 0.0
outer loop
vertex 26.035533905932734 6.464466094067263 20.0
vertex 26.830127018922187 7.499999999999999 0.0
vertex 26.830127018922187 7.499999999999999 20.0
endloop
endfacet
facet normal 0.7071067811865471 -0.7071067811865479 0.0
outer loop
vertex 26.035533905932734 6.464466094067263 20.0
vertex 24.999999999999993 5.669872981077807 0.0
vertex 26.035533905932734 6.464466094067263 0.0
endloop
endfacet
facet normal 0.49999999999999967 -0.8660254037844388 0.0
outer loop
vertex 24.999999999999993 5.669872981077807 0.0
vertex 26.035533905932734 6.464466094067263 20.0
vertex 24.999999999999993 5.669872981077807 20.0
endloop
endfacet
facet normal 0.25881904510252074 -0.9659258262890683 0.0
outer loop
vertex 23.7940952255126 5.170370868554659 20.0
vertex 22.499999999999996 5.000000000000001 0.0
vertex 23.7940952255126 5.170370868554659 0.0
endloop
endfacet
facet normal 1.514888682259974e-16 -1.0 0.0
outer loop
vertex 22.499999999999996 5.000000000000001 0.0
vertex 23.7940952255126 5.170370868554659 20.0
vertex 22.499999999999996 5.000000000000001 20.0
endloop
endfacet
facet normal 1.514888682259974e-16 -1.0 0.0
outer loop
vertex 22.499999999999996 5.000000000000001 20.0
vertex 21.20590477448739 5.170370868554659 0.0
vertex 22.499999999999996 5.000000000000001 0.0
endloop
endfacet
facet normal -0.25881904510252085 -0.9659258262890684 0.0
outer loop
vertex 21.20590477448739 5.170370868554659 0.0
vertex 22.499999999999996 5.000000000000001 20.0
vertex 21.20590477448739 5.170370868554659 20.0
endloop
endfacet
facet normal -0.5000000000000001 -0.8660254037844386 0.0
outer loop
vertex 19.999999999999993 5.669872981077807 20.0
vertex 18.96446609406726 6.464466094067263 0.0
vertex 19.999999999999993 5.669872981077807 0.0
endloop
endfacet
facet normal -0.7071067811865477 -0.7071067811865474 0.0
outer loop
vertex 18.96446609406726 6.464466094067263 0.0
vertex 19.999999999999993 5.669872981077807 20.0
vertex 18.96446609406726 6.464466094067263 20.0
endloop
endfacet
facet normal 0.8660254037844387 0.4999999999999999 0.0
outer loop
vertex 26.830127018922187 12.499999999999998 0.0
vertex 27.329629131445337 11.294095225512601 20.0
vertex 27.329629131445337 11.294095225512601 0.0
endloop
endfacet
facet normal 0.9659258262890684 0.25881904510252063 0.0
outer loop
vertex 27.329629131445337 11.294095225512601 20.0
vertex 26.830127018922187 12.499999999999998 0.0
vertex 26.830127018922187 12.499999999999998 20.0
endloop
endfacet
facet normal 0.9659258262890684 0.25881904510252063 0.0
outer loop
vertex 27.329629131445337 11.294095225512601 0.0
vertex 27.499999999999996 10.0 20.0
vertex 27.499999999999996 10.0 0.0
endloop
endfacet
facet normal 1.0 2.2277774739117265e-16 0.0
outer loop
vertex 27.499999999999996 10.0 20.0
vertex 27.329629131445337 11.294095225512601 0.0
vertex 27.329629131445337 11.294095225512601 20.0
endloop
endfacet
facet normal 1.0 2.2277774739117265e-16 0.0
outer loop
vertex 27.499999999999996 10.0 0.0
vertex 27.329629131445337 8.705904774487395 20.0
vertex 27.329629131445337 8.705904774487395 0.0
endloop
endfacet
facet normal 0.9659258262890683 -0.2588190451025206 0.0
outer loop
vertex 27.329629131445337 8.705904774487395 20.0
vertex 27.499999999999996 10.0 0.0
vertex 27.499999999999996 10.0 20.0
endloop
endfacet
facet normal -0.9659258262890683 -0.2588190451025207 0.0
outer loop
vertex 17.670370868554656 8.705904774487395 20.0
vertex 18.169872981077802 7.5 0.0
vertex 18.169872981077802 7.5 20.0
endloop
endfacet
facet normal -0.8660254037844388 -0.4999999999999999 0.0
outer loop
vertex 18.169872981077802 7.5 0.0
vertex 17.670370868554656 8.705904774487395 20.0
vertex 17.670370868554656 8.705904774487395 0.0
endloop
endfacet
endsolid PontCubeTrou
